<svg width="11" height="21" viewBox="0 0 11 21" fill="none" xmlns="http://www.w3.org/2000/svg">
<path d="M5.28389 20.0999C4.40023 20.0999 3.68389 19.3836 3.68389 18.4999V12.0999C3.68389 11.2162 2.96754 10.4999 2.08389 10.4999C1.20023 10.4999 0.483887 9.78356 0.483887 8.8999C0.483887 8.01625 1.20023 7.2999 2.08389 7.2999C2.96754 7.2999 3.68389 6.58356 3.68389 5.6999V5.5815C3.68389 2.3279 5.26869 0.899902 7.97269 0.899902C8.30633 0.899902 8.59947 0.906273 8.85637 0.916483C9.67289 0.948937 10.2767 1.64932 10.2767 2.46649C10.2767 3.3686 9.54538 4.0999 8.64327 4.0999H8.43269C7.28469 4.0999 6.88389 4.7055 6.88389 5.9327C6.88389 6.68779 7.496 7.2999 8.25109 7.2999H8.44644C9.39726 7.2999 10.1277 8.14199 9.99331 9.08327L9.98192 9.16308C9.87242 9.93012 9.21553 10.4999 8.44071 10.4999C7.5809 10.4999 6.88389 11.1969 6.88389 12.0567V18.4999C6.88389 19.3836 6.16754 20.0999 5.28389 20.0999Z" fill="white"/>
</svg>
