<svg width="20" height="18" viewBox="0 0 20 18" xmlns="http://www.w3.org/2000/svg">
<path d="M9.08325 0.219116L8.37248 3.35225L5.88745 6.113C5.58403 6.44941 5.41659 6.88656 5.41659 7.3394V15.8024C5.41659 16.8154 6.237 17.6358 7.24992 17.6358H14.6119C15.2911 17.6358 15.9061 17.2359 16.182 16.6153L18.9338 10.4224C19.0869 10.0796 19.1666 9.7079 19.1666 9.33207V8.46912C19.1666 7.46078 18.3416 6.63578 17.3333 6.63578H10.9166C10.9166 6.63578 11.8333 4.46262 11.8333 2.84379C11.8333 0.330291 9.08325 0.219116 9.08325 0.219116ZM0.833252 6.63578V17.6358H3.58325V6.63578H0.833252Z"/>
</svg>
