<svg width="33" height="33" viewBox="0 0 33 33" fill="none" xmlns="http://www.w3.org/2000/svg">
<rect width="32.6953" height="32.6953" rx="3.21367" fill="#E7F4FA"/>
<path d="M15.5144 8.01428L14.8682 10.8626L12.6091 13.3724C12.3333 13.6782 12.1811 14.0756 12.1811 14.4873V22.1809C12.1811 23.1018 12.9269 23.8476 13.8477 23.8476H20.5404C21.1579 23.8476 21.717 23.484 21.9679 22.9199L24.4695 17.29C24.6086 16.9783 24.6811 16.6405 24.6811 16.2988V15.5143C24.6811 14.5976 23.9311 13.8476 23.0144 13.8476H17.1811C17.1811 13.8476 18.0144 11.872 18.0144 10.4004C18.0144 8.11535 15.5144 8.01428 15.5144 8.01428ZM8.0144 13.8476V23.8476H10.5144V13.8476H8.0144Z" fill="#1294CA"/>
</svg>
