<svg width="19" height="19" viewBox="0 0 19 19" fill="none" xmlns="http://www.w3.org/2000/svg">
<path d="M4.28418 18.4999H0.28418V6.4999H4.28418V18.4999ZM2.28498 4.8999C1.17858 4.8999 0.28418 4.0031 0.28418 2.8991C0.28418 1.7951 1.18018 0.899902 2.28498 0.899902C3.38738 0.899902 4.28418 1.7967 4.28418 2.8991C4.28418 4.0031 3.38738 4.8999 2.28498 4.8999ZM18.6842 18.4999H14.8386V12.6599C14.8386 11.2671 14.8122 9.4759 12.8394 9.4759C10.837 9.4759 10.529 10.9927 10.529 12.5591V18.4999H6.68418V6.4911H10.3754V8.1319H10.4274C10.941 7.1879 12.1962 6.1927 14.0682 6.1927C17.9642 6.1927 18.6842 8.6799 18.6842 11.9135V18.4999Z" fill="white"/>
</svg>
