<svg width="25" height="25" viewBox="0 0 11 11" fill="none" xmlns="http://www.w3.org/2000/svg">
<path d="M5.48723 0.43564C5.25585 0.439031 5.03529 0.534139 4.874 0.700065C4.7127 0.865992 4.62388 1.08916 4.62705 1.32054V4.81241H1.13518C1.0195 4.81078 0.904651 4.83215 0.797303 4.87528C0.689956 4.91842 0.592253 4.98246 0.509871 5.06369C0.427489 5.14491 0.362073 5.2417 0.317422 5.34843C0.272772 5.45515 0.249779 5.56969 0.249779 5.68538C0.249779 5.80107 0.272772 5.91561 0.317422 6.02233C0.362073 6.12906 0.427489 6.22585 0.509871 6.30707C0.592253 6.3883 0.689956 6.45234 0.797303 6.49547C0.904651 6.53861 1.0195 6.55998 1.13518 6.55835H4.62705V10.0502C4.62541 10.1659 4.64678 10.2807 4.68992 10.3881C4.73306 10.4954 4.7971 10.5931 4.87832 10.6755C4.95955 10.7579 5.05634 10.8233 5.16306 10.868C5.26979 10.9126 5.38433 10.9356 5.50002 10.9356C5.61571 10.9356 5.73024 10.9126 5.83697 10.868C5.9437 10.8233 6.04048 10.7579 6.12171 10.6755C6.20293 10.5931 6.26697 10.4954 6.31011 10.3881C6.35325 10.2807 6.37462 10.1659 6.37298 10.0502V6.55835H9.86485C9.98053 6.55998 10.0954 6.53861 10.2027 6.49547C10.3101 6.45234 10.4078 6.3883 10.4902 6.30707C10.5725 6.22585 10.638 6.12906 10.6826 6.02233C10.7273 5.91561 10.7503 5.80107 10.7503 5.68538C10.7503 5.56969 10.7273 5.45515 10.6826 5.34843C10.638 5.2417 10.5725 5.14491 10.4902 5.06369C10.4078 4.98246 10.3101 4.91842 10.2027 4.87528C10.0954 4.83215 9.98053 4.81078 9.86485 4.81241H6.37298V1.32054C6.37458 1.20382 6.35275 1.08797 6.30879 0.979827C6.26484 0.871689 6.19964 0.773464 6.11705 0.690961C6.03447 0.608459 5.93619 0.543356 5.82801 0.499501C5.71982 0.455646 5.60395 0.433931 5.48723 0.43564Z" fill="white"/>
</svg>
