<svg  width="13.67" height="16.67" viewBox="0 0 14 19" xmlns="http://www.w3.org/2000/svg"><path d="M10.9166 13.2604V15.1716C10.9166 17.1967 9.27496 18.8383 7.24992 18.8383C5.22487 18.8383 3.58325 17.1967 3.58325 15.1716V13.2604C3.58325 13.0814 3.51984 12.8861 3.37009 12.629C3.27387 12.4638 3.148 12.2823 2.95809 12.0311L2.89422 11.9477L2.89417 11.9476C2.76734 11.7824 2.49043 11.4215 2.3882 11.2834C1.35249 9.88448 0.833252 8.63566 0.833252 6.92161C0.833252 3.37778 3.70609 0.504944 7.24992 0.504944C10.7937 0.504944 13.6666 3.37778 13.6666 6.92161C13.6666 8.67314 13.1403 9.96937 12.1134 11.3656C12.0045 11.5136 11.73 11.8704 11.5674 12.0817L11.5673 12.0818C11.5037 12.1645 11.4572 12.2249 11.4445 12.2418C11.237 12.5179 11.1081 12.7136 11.0243 12.8835C10.9484 13.0373 10.9166 13.1562 10.9166 13.2604ZM9.12329 12.8244C9.17005 12.5708 9.257 12.322 9.38012 12.0724C9.52482 11.7791 9.70882 11.4996 9.979 11.1402C9.99752 11.1156 10.0571 11.038 10.1342 10.9379L10.1345 10.9375L10.1346 10.9373C10.2997 10.7227 10.5444 10.4045 10.6365 10.2793C11.451 9.17179 11.8333 8.23048 11.8333 6.92157C11.8333 4.39026 9.78123 2.33823 7.24993 2.33823C4.71862 2.33823 2.6666 4.39026 2.6666 6.92157C2.6666 8.18524 3.03937 9.0818 3.86165 10.1924C3.94994 10.3117 4.19928 10.6368 4.33392 10.8123L4.42062 10.9255C4.65094 11.2302 4.81389 11.4651 4.9543 11.7062C5.17298 12.0816 5.31816 12.4476 5.38104 12.8271C5.95227 13.1699 6.56977 13.3383 7.24994 13.3383C7.93188 13.3383 8.55083 13.169 9.12329 12.8244ZM9.08326 15.1716V14.8622C8.5035 15.068 7.891 15.1716 7.24994 15.1716C6.60887 15.1716 5.99636 15.068 5.4166 14.8622V15.1716C5.4166 16.1841 6.23741 17.0049 7.24993 17.0049C8.26245 17.0049 9.08326 16.1841 9.08326 15.1716Z" fill="#BDBDBD"/></svg>
