<svg width="33" height="33" viewBox="0 0 33 33" fill="none" xmlns="http://www.w3.org/2000/svg">
<rect x="0.0859375" width="32.6953" height="32.6953" rx="3.21367" fill="#F0F9EF"/>
<g clip-path="url(#clip0)">
<path d="M16.4334 8.16589C12.9571 8.16589 10.1396 10.9834 10.1396 14.4596C10.1396 17.9561 12.9369 19.3547 14.3355 22.1519H18.5313C19.9299 19.3547 22.7271 17.9561 22.7271 14.4596C22.7271 10.9834 19.9096 8.16589 16.4334 8.16589ZM14.3355 23.5505V24.2498C14.3355 25.0225 14.9613 25.6484 15.7341 25.6484C15.7341 25.8339 15.8077 26.0117 15.9389 26.1429C16.07 26.274 16.2479 26.3477 16.4334 26.3477C16.6188 26.3477 16.7967 26.274 16.9278 26.1429C17.059 26.0117 17.1327 25.8339 17.1327 25.6484C17.9054 25.6484 18.5313 25.0225 18.5313 24.2498V23.5505H14.3355Z" fill="#64C45C"/>
</g>
<defs>
<clipPath id="clip0">
<rect width="20" height="20" fill="white" transform="translate(6.43359 6.34766)"/>
</clipPath>
</defs>
</svg>
