<?xml version="1.0" standalone="no"?>
<!DOCTYPE svg PUBLIC "-//W3C//DTD SVG 1.1//EN" "http://www.w3.org/Graphics/SVG/1.1/DTD/svg11.dtd" >
<svg xmlns="http://www.w3.org/2000/svg">
<metadata>Generated by IcoMoon</metadata>
<defs>
<font id="OpenIdeal" horiz-adv-x="512">
<font-face units-per-em="512" ascent="480" descent="-32" />
<missing-glyph horiz-adv-x="512" />
<glyph unicode="&#x20;" d="" horiz-adv-x="256" />
<glyph unicode="&#xe600;" d="M446.488 281.816c0 109.456-87.328 198.184-195.048 198.184-107.712 0-195.040-88.728-195.040-198.184 0-64.28 30.12-121.4 76.808-157.608l-76.808-156.208 97.52 66.072 32.496-66.072 45.544 116.592c6.408-0.632 12.912-0.96 19.48-0.96 6.576 0 13.072 0.328 19.488 0.96l45.544-116.592 32.504 66.072 97.512-66.072-76.808 156.2c46.68 36.216 76.808 93.328 76.808 157.616zM343.392 188.392c-24.568-24.96-57.216-38.728-91.952-38.728s-67.376 13.768-91.944 38.728c-24.552 24.944-38.072 58.136-38.072 93.424s13.52 68.48 38.072 93.432c24.568 24.952 57.208 38.696 91.944 38.696s67.384-13.752 91.952-38.696c24.544-24.952 38.080-58.144 38.080-93.432s-13.536-68.48-38.080-93.424z" />
<glyph unicode="&#xe601;" d="M256 70.808c-74.096 0-140.040 36.512-172.744 58.288-21.912 14.584-42.080 31.288-56.792 47.032-17.816 19.040-26.464 35.096-26.464 49.112 0 14.008 8.648 30.080 26.456 49.12 14.704 15.728 34.872 32.432 56.792 47.024 32.704 21.768 98.656 58.296 172.744 58.296 74.088 0 140.032-36.52 172.744-58.296 21.912-14.592 42.088-31.296 56.808-47.024 17.792-19.032 26.448-35.112 26.464-49.112-0.016-14.016-8.672-30.080-26.464-49.12-14.72-15.744-34.888-32.448-56.808-47.032-32.704-21.776-98.648-58.288-172.736-58.288zM48.816 225.24c5.52-10.208 28.256-35.184 67.024-59.84 27.208-17.28 81.584-46.304 140.16-46.304 58.592 0 112.976 29.024 140.16 46.304 38.768 24.656 61.52 49.632 67.024 59.84-5.504 10.208-28.256 35.176-67.024 59.832-27.2 17.288-81.568 46.312-140.16 46.312-58.576 0-112.952-29.024-140.16-46.312-38.776-24.656-61.504-49.624-67.024-59.832zM191.992 225.24c0-35.568 28.656-64.376 64-64.376s64 28.816 64 64.376c0 35.56-28.656 64.392-64 64.392s-64-28.832-64-64.392z" />
<glyph unicode="&#xe602;" d="M501.272-32h-244.104c18.584 95.304 95.832 108.376 95.832 108.376-9.88 3.64-25.808 41.016-25.808 41.016h-0.024c1.552 0.816 3.28 1.232 5.048 1.232h5.584c1.808 0 3.568-0.464 5.144-1.272 61.584-15.352 118.888-47.424 165.816-92.864 2.072-2.024 3.24-4.784 3.24-7.672v-38.144c0-5.92-4.792-10.672-10.728-10.672zM2.304-21.328v38.144c0 2.888 1.176 5.648 3.256 7.672 47.976 46.488 106.776 78.944 170 93.872 0.808 0.176 1.648 0.304 2.464 0.304h4.064c1.752 0 3.496-0.464 5.056-1.272 0 0-15.952-37.376-25.832-41.016 0 0 77.264-13.072 95.856-108.376h-244.144c-5.92 0-10.72 4.752-10.72 10.672zM353.576 421.608c0 0 42.432-31.424 30.752-81.904 0 0-6.016-3.416-7.6 0-2.536 5.496-5.408 13.688-9.784 22.544 3.336-11.4 5.152-23.48 5.152-36.024 0-13.752-2.2-26.968-6.176-39.288 6.88-3.24 11.672-10.536 11.672-19.016 0-11.496-8.832-20.816-19.672-20.816-0.144 0-0.272 0-0.376 0-2.28-30.6-16.76-61.136-38.28-82.264v-15.832c0-1.144-0.264-2.192-0.768-3.184-2.8-5.64-28.392-55.048-60.848-55.048-0.048 0-0.576 0-0.624 0-32.512 0.656-58.36 49.408-61.2 54.968-0.52 1.024-0.776 2.128-0.776 3.264v15.856c-21.52 21.096-35.992 51.664-38.272 82.232-0.112 0-0.208 0-0.336 0-10.896 0-19.704 9.32-19.704 20.816 0 8.48 4.792 15.776 11.672 19.016-3.968 12.32-6.168 25.528-6.168 39.288 0 24.76 7.048 47.776 19.072 67.008-18.064-6.304-32.336-15.016-36.176-27.152 0 0 22.232 102.832 122.6 97.92-20.608 2.176-42.544 3.264-72.336-2.368 0 0 108.96 47.728 157.96-22.232 0.224 0.088 36.104 12.456 63.176-34.16-0.016 0.008-11.2 14.488-42.96 16.376z" />
<glyph unicode="&#xe603;" d="M50.408 160c16.44 0 98.776 0 98.776 0-98.776-160.016-27.28-192 0-192 0 81.312 123.008 171.888 246.984 207.992v256.032c-140.336 14.176-91.416 47.976-230.536 47.976-32.888 0-65.856-15.992-65.856-47.976-32.928 0-49.368-80.024-32.928-80.024-32.928 0-54.024-95.984-16.44-95.984-32.928 0-49.408-96.016 0-96.016zM396.168 175.992v-15.992h65.848c18.136 0 32.92 21.592 32.92 48.008v192c0 26.416-14.792 48.008-32.92 48.008h-65.848v-15.992h32.92v-256.032h-32.92z" />
<glyph unicode="&#xe604;" d="M193.128 480h318.872v-127.552h-318.872v127.552zM193.128 288.672h318.872v-127.544h-318.872v127.544zM193.128 97.344h318.872v-127.544h-318.872v127.544zM1.8 416.224c0-35.216 28.552-63.776 63.776-63.776s63.776 28.552 63.776 63.776c-0.008 35.224-28.56 63.776-63.784 63.776-35.216 0-63.768-28.552-63.768-63.776zM1.8 224.896c0-35.216 28.552-63.776 63.776-63.776s63.776 28.552 63.776 63.776-28.552 63.776-63.776 63.776c-35.224 0-63.776-28.552-63.776-63.776zM1.8 33.56c0-35.216 28.552-63.768 63.776-63.768s63.776 28.544 63.776 63.768c0 35.224-28.552 63.784-63.776 63.784-35.224 0-63.776-28.552-63.776-63.784z" />
<glyph unicode="&#xe605;" d="M50.408 191.984c-37.584 0-16.488-95.984 16.44-95.984-16.44 0 0-80.024 32.928-80.024 0-31.984 32.968-47.976 65.856-47.976 139.12 0 90.208 33.8 230.536 47.976v256.032c-123.976 36.104-246.984 126.68-246.984 207.992-27.28 0-98.776-31.984 0-192 0 0-82.336 0-98.776 0-49.408 0-32.928-96.016 0-96.016zM429.088 272.008v-256.032h-32.92v-15.992h65.848c18.136 0 32.92 21.592 32.92 48.008v192c0 26.416-14.792 48.008-32.92 48.008h-65.848v-15.992h32.92z" />
<glyph unicode="&#xe606;" d="M455.64 353.016c31.28 0 56.856-24.848 56.856-55.24v-303.848l-85.272 82.872h-255.88c-31.28 0-56.872 24.84-56.872 55.248v27.616h56.872v-27.528c0.024-0.024 0.056-0.072 0.088-0.088h284.2v165.624c-0.024 0.032-0.064 0.080-0.112 0.104h-28.304v55.24h28.424zM341.912 435.888h-284.296c-31.264 0-56.856-24.848-56.856-55.248v-276.216l85.288 82.864h255.864c31.288 0 56.864 24.856 56.864 55.24v138.112c0.008 30.392-25.576 55.248-56.864 55.248zM341.912 242.624c0-0.024-0.048-0.064-0.104-0.088h-284.192v138.008c0.040 0.032 0.072 0.080 0.104 0.096h284.088c0.056-0.016 0.104-0.064 0.104-0.096v-137.92z" />
<glyph unicode="&#xe607;" d="M176.080 288.176h64.040v-64.032h-64.040v64.032zM272.144 288.176h64.032v-64.032h-64.032v64.032zM368.192 288.176h64.032v-64.032h-64.032v64.032zM80.032 96.072h64.032v-64.040h-64.032v64.040zM176.080 96.072h64.040v-64.040h-64.040v64.040zM272.144 96.072h64.032v-64.040h-64.032v64.040zM176.080 192.128h64.040v-64.040h-64.040v64.040zM272.144 192.128h64.032v-64.040h-64.032v64.040zM368.192 192.128h64.032v-64.040h-64.032v64.040zM80.032 192.128h64.032v-64.040h-64.032v64.040zM432.224 480.28v-32.016h-64.032v32.016h-224.12v-32.016h-64.032v32.016h-64.040v-512.28h480.264v512.28h-64.040zM464.248 0.016h-416.24v352.192h416.24v-352.192z" />
<glyph unicode="&#xe608;" d="M465 458.856h-418c-26.528 0-48.232-21.12-48.232-46.968v-250.52c0-25.84 21.704-46.96 48.232-46.96h80.384v-125.272l154.344 125.272h183.264c26.512 0 48.224 21.12 48.224 46.96v250.528c0.008 25.84-21.704 46.96-48.216 46.96zM223.848 208.36h-128.616v31.304h128.616v-31.304zM352.464 270.984h-257.232v31.304h257.224v-31.304zM416.768 333.608h-321.536v31.328h321.528v-31.328z" />
<glyph unicode="&#xe609;" d="M458.536 371.96c-0.464-14.328-12.736-351.704-196.592-402.752l-4.296-1.208-4.272 1.2c-183.856 51.048-196.16 388.432-196.592 402.76l-0.088 3.368 1.072 3.152c25.688 74.872 180.016 100.048 197.528 102.664l2.352 0.368 2.4-0.368c17.512-2.616 171.824-27.792 197.504-102.664l1.096-3.152-0.112-3.368zM257.648 445.984c-57.288-9.032-149.728-37.064-167.168-76.512 1.768-35.432 20.544-318.952 167.168-365.008 146.68 46.056 165.432 329.576 167.192 365.008-17.44 39.448-109.904 67.48-167.192 76.512zM324.032 168.8c0.784-2.68-0.136-5.536-2.288-7.192-1.096-0.832-2.376-1.264-3.664-1.264-1.24 0-2.488 0.4-3.528 1.16l-56.896 41.064-56.856-41.072c-2.16-1.584-5.080-1.52-7.216 0.112-2.136 1.656-3.056 4.512-2.272 7.192l20 68.728-55.104 43.384c-2.136 1.68-3.008 4.584-2.2 7.264 0.808 2.64 3.168 4.44 5.824 4.512l69.24 1.464 22.72 67.872c0.872 2.608 3.224 4.368 5.864 4.368s5.016-1.768 5.912-4.368l22.696-67.872 69.24-1.464c2.656-0.080 4.992-1.872 5.824-4.512 0.808-2.68-0.064-5.584-2.2-7.264l-55.128-43.384 20.032-68.728z" />
<glyph unicode="&#xe60a;" d="M158.44-32l262.528 255.992-262.528 256.008-60.040-57.744 203.32-198.264-203.32-198.224 60.040-57.768z" />
<glyph unicode="&#xe60b;" d="M420.968 25.768l-203.312 198.224 203.312 198.264-60.032 57.744-262.528-256.008 262.528-255.992 60.032 57.768z" />
<glyph unicode="&#xe60c;" d="M202.256 107.296v-33.096c16.52-5.272 34.688-8.2 53.744-8.2s37.216 2.928 53.744 8.2v30.576c-9.24-8.376-24.392-10.672-51.408-11.12-29.984-0.472-46.24 3.128-56.080 13.64zM256 432.592c-70.664 0-128-55.672-128-124.28 0-34.32 20.76-70.28 44.52-109.168 23.448-38.392 5.464-80.76 82.664-80.76 1.040 0 2.072 0.016 3.152 0.016 77.48 1.136 57.408 36.080 79.984 74.984 22.568 38.896 45.68 80.616 45.68 114.936 0 68.6-57.352 124.272-128 124.272zM311 208.744c-8.256-14.224-12-27.464-15-38.112-1.848-6.632-3.984-14.152-5.928-15.824-0.608-0.512-6.68-5.072-32.2-5.448-0.904 0-1.8-0.016-2.688-0.016-23 0-29.648 4.488-31.152 5.848-3.2 2.944-5.664 11.28-8.28 20.080-3.368 11.368-7.552 25.504-16.296 39.816-21.888 35.848-40.016 67.632-40.016 93.224 0 51.456 43.312 93.312 96.552 93.312 25.848 0 50.152-9.76 68.408-27.488 18.152-17.624 28.152-41.008 28.152-65.824 0-28.016-25-71.072-41.552-99.568zM202.816 53.664c2.072-11.176 11.016-38.256 53.184-38.256s51.096 27.080 53.184 38.256c-23.872-7.176-34.76-7.568-53.184-7.568-18.448 0-29.32 0.392-53.184 7.568zM503.816 404.408l-10.704 27.144-100.944-38.672 10.728-27.128 100.92 38.656zM404.152 325.928v-29.032h107.848v29.032h-107.848zM393.72 229.944l98.152-39.76 10.416 27.888-98.152 39.744-10.416-27.872zM8.072 405.224l99.648-38.832 10.552 27.24-99.64 38.816-10.56-27.224zM106.664 326.52h-106.664v-29.632h106.664v29.632zM9.592 218.168l10.28-27.984 96.888 39.904-10.28 27.984-96.888-39.904z" />
<glyph unicode="&#xe60d;" d="M432 128c-22.58 0-42.96-9.369-57.506-24.415l-215.502 107.751c0.657 4.126 1.008 8.353 1.008 12.664s-0.351 8.538-1.008 12.663l215.502 107.751c14.546-15.045 34.926-24.414 57.506-24.414 44.183 0 80 35.817 80 80s-35.817 80-80 80-80-35.817-80-80c0-4.311 0.352-8.538 1.008-12.663l-215.502-107.752c-14.546 15.045-34.926 24.415-57.506 24.415-44.183 0-80-35.818-80-80 0-44.184 35.817-80 80-80 22.58 0 42.96 9.369 57.506 24.414l215.502-107.751c-0.656-4.125-1.008-8.352-1.008-12.663 0-44.184 35.817-80 80-80s80 35.816 80 80c0 44.182-35.817 80-80 80z" />
<glyph unicode="&#xe60e;" d="M512 300.922c0-43.181-18.609-82.015-48.245-108.922h0.245l-160-160c-16-16-32-32-48-32s-32 16-48 32l-159.755 160c-29.636 26.907-48.245 65.741-48.245 108.922 0 81.229 65.849 147.078 147.078 147.078 27.725 0 53.651-7.682 75.786-21.018l-46.864-74.982 112-64-64-160 176 192-112 64 39.446 59.17c11.966 3.144 24.523 4.83 37.476 4.83 81.228 0 147.078-65.849 147.078-147.078z" />
<glyph unicode="&#xe60f;" d="M512 300.922c0-43.181-18.609-82.015-48.245-108.922h0.245l-160-160c-16-16-32-32-48-32s-32 16-48 32l-159.755 160c-29.636 26.907-48.245 65.741-48.245 108.922 0 81.229 65.849 147.078 147.078 147.078 43.181 0 82.015-18.609 108.922-48.245 26.907 29.636 65.741 48.245 108.922 48.245 81.228 0 147.078-65.849 147.078-147.078z" />
<glyph unicode="&#xe610;" d="M127.001-25.6c-34.202 0-66.227 14.49-89.37 37.658-44.8 44.8-57.319 123.034 5.504 185.856 36.839 36.787 184.294 184.243 257.894 257.843 26.137 26.137 59.366 36.224 91.213 27.673 31.257-8.346 56.909-33.971 65.28-65.254 8.525-31.846-1.587-65.101-27.699-91.213l-246.579-246.605c-14.080-14.080-29.977-22.425-45.977-24.089-15.821-1.664-30.925 3.43-41.523 14.003-19.2 19.175-21.913 55.27 9.984 87.142l173.184 173.235c7.117 7.091 18.663 7.091 25.779 0 7.117-7.117 7.117-18.662 0-25.779l-173.209-173.209c-14.976-14.976-16.358-29.286-9.984-35.661 2.79-2.765 7.040-4.045 11.93-3.533 7.501 0.793 16.051 5.658 24.038 13.645l246.579 246.579c16.921 16.922 23.399 36.813 18.253 56.038-5.069 18.918-20.582 34.432-39.501 39.501-19.226 5.146-39.117-1.357-56.038-18.253-73.575-73.6-221.030-221.056-257.843-257.843-48.026-48.026-36.531-103.296-5.529-134.323 31.027-31.002 86.297-42.522 134.349 5.529l257.869 257.843c7.091 7.117 18.663 7.117 25.753 0 7.117-7.117 7.117-18.662 0-25.753l-257.869-257.869c-30.387-30.413-64.384-43.161-96.487-43.161z" />
<glyph unicode="&#xe611;" d="M256 476.16c-135.731 0-245.76-110.029-245.76-245.76s110.029-245.76 245.76-245.76 245.76 110.029 245.76 245.76-110.029 245.76-245.76 245.76zM314.189 306.329h-36.941c-4.352 0-9.216-5.76-9.216-13.415v-26.675h46.183v-38.042h-46.183v-114.202h-43.623v114.202h-39.526v38.016h39.526v22.375c0 32.103 22.272 58.189 52.839 58.189h36.941v-40.448z" />
<glyph unicode="&#xe612;" d="M256 476.16c-135.731 0-245.76-110.029-245.76-245.76s110.029-245.76 245.76-245.76 245.76 110.029 245.76 245.76-110.029 245.76-245.76 245.76zM355.942 274.816c0.103-2.074 0.154-4.173 0.154-6.272 0-63.949-48.691-137.702-137.728-137.702-27.315 0-52.787 7.987-74.189 21.76 3.789-0.461 7.655-0.666 11.546-0.666 22.681 0 43.546 7.731 60.135 20.736-21.171 0.384-39.066 14.387-45.235 33.587 2.944-0.563 5.99-0.87 9.088-0.87 4.429 0 8.704 0.589 12.749 1.69-22.119 4.454-38.835 24.013-38.835 47.463 0 0.205 0 0.41 0.025 0.589 6.528-3.609 14.003-5.786 21.913-6.042-12.953 8.678-21.504 23.475-21.504 40.294 0 8.883 2.381 17.203 6.554 24.346 23.859-29.312 59.546-48.589 99.763-50.586-0.819 3.533-1.255 7.219-1.255 11.034 0 26.727 21.683 48.41 48.409 48.41 13.926 0 26.496-5.863 35.328-15.283 11.034 2.15 21.401 6.169 30.745 11.725-3.635-11.29-11.289-20.787-21.299-26.777 9.805 1.178 19.123 3.763 27.801 7.629-6.477-9.702-14.72-18.227-24.166-25.063z" />
<glyph unicode="&#xe613;" d="M232.883 299.904c-6.169 21.76-16.154 28.185-31.693 28.185-1.664 0-3.353-0.231-4.966-0.666-6.758-1.92-12.083-7.552-15.053-15.872-3.047-8.448-3.251-17.28-0.589-27.315 4.71-17.92 17.459-30.951 30.336-30.951 1.664 0 3.353 0.231 4.966 0.666 14.003 3.968 22.81 25.421 16.999 45.952zM256 476.16c-135.731 0-245.76-110.029-245.76-245.76s110.029-245.76 245.76-245.76c135.757 0 245.76 110.029 245.76 245.76s-110.003 245.76-245.76 245.76zM241.843 124.877c-15.463-7.501-32.077-8.295-38.502-8.295-1.229 0-1.92 0.026-2.023 0.026 0 0-0.487 0-1.255 0-10.035 0-59.981 2.304-59.981 47.795 0 44.697 54.375 48.179 71.040 48.179h0.461c-9.6 12.851-7.603 25.805-7.603 25.805-0.845-0.051-2.099-0.102-3.609-0.102-6.298 0-18.406 0.999-28.8 7.731-12.723 8.167-19.174 22.119-19.174 41.446 0 54.553 59.546 56.755 60.16 56.781h59.469v-1.305c0-6.656-11.93-7.936-20.096-9.063-2.765-0.384-8.294-0.947-9.881-1.741 15.078-8.038 17.511-20.711 17.511-39.552 0-21.427-8.397-32.768-17.305-40.755-5.504-4.915-9.856-8.832-9.856-14.003 0-5.069 5.939-10.291 12.851-16.358 11.289-9.933 26.777-23.526 26.777-46.361 0-23.603-10.163-40.499-30.183-50.227zM371.891 230.631h-38.81v-38.809h-24.576v38.81h-38.81v24.576h38.81v38.784h24.576v-38.809h38.81v-24.55zM210.509 200.935c-1.331 0-2.662-0.051-3.994-0.154-11.367-0.819-21.863-5.094-29.465-12.007-7.526-6.81-11.341-15.385-10.803-24.089 1.126-18.176 20.685-28.851 44.391-27.136 23.373 1.69 38.938 15.13 37.786 33.331-1.101 17.127-15.975 30.055-37.913 30.055z" />
<glyph unicode="&#xe614;" d="M256 476.16c-135.731 0-245.76-110.029-245.76-245.76s110.029-245.76 245.76-245.76 245.76 110.029 245.76 245.76-110.029 245.76-245.76 245.76zM195.84 128.538h-49.767v160.128h49.767v-160.128zM170.649 308.327c-15.719 0-25.881 11.161-25.881 24.909 0 14.080 10.47 24.883 26.522 24.883s25.881-10.803 26.189-24.883c0.025-13.773-10.137-24.909-26.829-24.909zM377.575 128.538h-49.741v88.755c0 20.633-7.219 34.688-25.216 34.688-13.747 0-21.913-9.498-25.549-18.662-1.305-3.251-1.639-7.859-1.639-12.416v-92.339h-49.792v109.056c0 19.968-0.64 36.685-1.305 51.072h43.213l2.304-22.247h0.973c6.553 10.471 22.605 25.856 49.459 25.856 32.743 0 57.293-21.913 57.293-69.069v-94.695z" />
<glyph unicode="&#xe615;" d="M0 326.264l256-265.184 256 265.184-57.776 60.664-198.224-205.368-198.224 205.36-57.776-60.656z" />
<glyph unicode="&#xe616;" d="M507.331 68.67c-0.002 0.002-0.004 0.004-0.006 0.005l-155.322 155.325 155.322 155.325c0.002 0.002 0.004 0.003 0.006 0.005 1.672 1.673 2.881 3.627 3.656 5.708 2.123 5.688 0.912 12.341-3.662 16.915l-73.373 73.373c-4.574 4.573-11.225 5.783-16.914 3.66-2.080-0.775-4.035-1.984-5.709-3.655 0-0.002-0.002-0.003-0.004-0.005l-155.324-155.326-155.324 155.325c-0.002 0.002-0.003 0.003-0.005 0.005-1.673 1.671-3.627 2.88-5.707 3.655-5.69 2.124-12.341 0.913-16.915-3.66l-73.374-73.374c-4.574-4.574-5.784-11.226-3.661-16.914 0.776-2.080 1.985-4.036 3.656-5.708 0.002-0.001 0.003-0.003 0.005-0.005l155.325-155.324-155.325-155.326c-0.001-0.002-0.003-0.003-0.004-0.005-1.671-1.673-2.88-3.627-3.657-5.707-2.124-5.688-0.913-12.341 3.661-16.915l73.374-73.373c4.575-4.574 11.226-5.784 16.915-3.661 2.080 0.776 4.035 1.985 5.708 3.656 0.001 0.002 0.003 0.003 0.005 0.005l155.324 155.325 155.324-155.325c0.002-0.001 0.004-0.003 0.006-0.004 1.674-1.672 3.627-2.881 5.707-3.657 5.689-2.123 12.342-0.913 16.914 3.661l73.373 73.374c4.574 4.574 5.785 11.227 3.662 16.915-0.776 2.080-1.985 4.034-3.657 5.707z" />
<glyph unicode="&#xe617;" d="M512 184.778l-256 198.713-256-198.714v81.019l256 198.713 256-198.714zM448 192v-192h-128v128h-128v-128h-128v192l192 144z" />
<glyph unicode="&#xe618;" d="M281.118 190.113c-25.57 20.897-41.888 52.671-41.888 88.272 0 17.889 4.478 34.591 11.824 49.664l-17.569 17.552-106.722-106.735c19.842-15.616 17.842-30.88-5.376-45.759l142.575-142.562h69.871c8.99 0 16.288-7.298 16.288-16.288v-16.288h-76.288l-0.178-0.178-0.178 0.178h-118.689v16.272c0 8.99 7.298 16.288 16.288 16.288h69.871l-134.495 134.478c-26.576-11.394-39.697-0.385-39.138 33.44 0.608 35.983 15.855 45.585 45.425 29.392l109.264 109.264-10.817 10.8c-6.352 6.335-6.352 16.657 0 23.010l34.529 34.53c6.352 6.352 16.671 6.352 23.023 0l41.601-41.632c13.247 5.393 27.665 8.478 42.848 8.478 37.471 0 70.751-16.080 91.505-44.032 0.703-0.178-162.994-158.399-163.584-158.143zM407.088 291.935c0 0 27.471-34.577 0-62.048s-61.713 0.334-61.713 0.334l61.713 61.713z" />
<glyph unicode="&#xe619;" d="M185.592 80.36c11.064-12.888 29.384-17.28 63.128-16.672 30.448 0.544 47.488 3.36 57.888 13.592v-37.376c-18.6-6.472-39.048-10.048-60.504-10.048s-41.928 3.576-60.504 10.048v40.456zM186.224 14.784c26.848-8.784 39.112-9.264 59.88-9.264s33.008 0.488 59.88 9.264c-2.344-13.656-12.392-46.784-59.88-46.784s-57.544 33.128-59.88 46.784zM246.104 440.208c-59.944 0-108.736-51.184-108.736-114.112 0-31.28 20.424-70.12 45.064-113.96 9.856-17.504 14.576-34.784 18.368-48.656 2.92-10.8 5.712-20.968 9.312-24.56 1.688-1.688 9.176-7.144 35.080-7.144 1 0 1.992 0 3.032 0.016 28.712 0.456 35.56 6.016 36.256 6.64 2.184 2.048 4.568 11.216 6.696 19.328 3.376 13.032 7.576 29.232 16.864 46.624 18.648 34.832 46.8 87.472 46.8 121.704 0 30.36-11.256 58.952-31.704 80.504-20.56 21.68-47.928 33.616-77.032 33.616zM246.104 478.064v0c79.56 0 144.152-68.080 144.152-151.968 0-41.936-26.032-92.952-51.464-140.488-25.424-47.544-2.816-90.296-90.048-91.672-1.208-0.016-2.376-0.016-3.552-0.016-86.952 0-66.704 51.8-93.104 98.704-26.744 47.576-50.136 91.536-50.136 133.472 0.008 83.88 64.584 151.968 144.152 151.968z" />
<glyph unicode="&#xe61a;" d="M486.4 377.595c0 40.356-36.434 76.805-76.8 76.805h-307.2c-40.366 0-76.8-36.449-76.8-76.805v-307.19c0-40.356 36.434-76.805 76.805-76.805h153.595v174.080h-56.32v76.8h56.32v29.921c0 51.605 38.754 98.079 86.4 98.079h62.080v-76.8h-62.080c-6.794 0-14.72-8.248-14.72-20.603v-30.597h76.8v-76.8h-76.8v-174.080h81.92c40.366 0 76.8 36.45 76.8 76.805v307.19z" />
<glyph unicode="&#xe61b;" d="M407.040 454.4h-124.697c-32.681 0-73.841-4.823-108.329-33.229-26.061-22.395-38.738-53.207-38.738-81.040 0-47.16 36.322-94.955 100.48-94.955 6.052 0 12.682 0.614 19.389 1.203-3.031-7.234-6.088-13.281-6.088-23.578 0-18.755 9.692-30.224 18.16-41.113-27.208-1.802-78.070-4.823-115.62-27.791-35.712-21.207-46.628-52.019-46.628-73.8-0.010-44.749 42.378-86.498 130.161-86.498 104.12 0 159.222 57.447 159.222 114.329 0 41.687-24.217 62.279-50.852 84.654l-21.801 16.921c-6.63 5.453-15.708 12.692-15.708 26.010 0 13.297 9.078 21.781 16.932 29.639 25.411 19.947 50.852 41.113 50.852 85.863 0 45.972-29.082 70.164-42.988 81.649h37.55l38.702 21.734zM353.813 84.332c0-37.494-30.889-65.296-89.011-65.296-64.758 0-106.542 30.843-106.542 73.753 0 42.967 38.748 57.436 52.050 62.279 25.441 8.478 58.122 9.682 63.56 9.682 6.062 0 9.088 0 13.952-0.594 46.019-32.65 65.991-48.993 65.991-79.826zM305.372 279.045c-9.692-9.656-26.050-16.921-41.19-16.921-52.040 0-75.638 67.138-75.638 107.638 0 15.729 3.031 32.041 13.302 44.749 9.692 12.094 26.629 19.963 42.378 19.963 50.233 0 76.288-67.733 76.288-111.257 0-10.906-1.234-30.239-15.14-44.17z" />
<glyph unicode="&#xe61c;" d="M449.93 451.287h-392.719c-18.806 0-34.048-14.776-34.048-33.014v-394.757c0-18.238 15.248-33.029 34.048-33.029h392.719c18.806 0 34.027 14.797 34.027 33.029v394.757c0 18.233-15.222 33.014-34.028 33.014zM162.862 65.567h-69.622v208.046h69.622v-208.046zM128.056 302.034h-0.466c-23.347 0-38.482 15.97-38.482 35.958 0 20.393 15.58 35.927 39.388 35.927 23.813 0 38.462-15.529 38.922-35.927 0-19.993-15.104-35.958-39.363-35.958zM413.834 65.567h-69.601v111.309c0 27.976-10.087 47.058-35.257 47.058-19.257 0-30.684-12.877-35.702-25.303-1.863-4.444-2.32-10.649-2.32-16.855v-116.204h-69.591c0 0 0.911 188.534 0 208.046h69.596v-29.496c9.241 14.172 25.748 34.391 62.715 34.391 45.808 0 80.159-29.716 80.159-93.65 0 0 0-119.296 0-119.296zM270.51 243.461c0.123 0.195 0.286 0.43 0.45 0.655v-0.655h-0.45z" />
<glyph unicode="&#xe61d;" d="M434.192 241.593c25.882 2.135 43.433 13.901 50.192 29.865-9.339-5.734-38.318-11.986-54.323-6.031-0.784 3.758-1.659 7.332-2.519 10.558-12.196 44.779-53.95 80.855-97.7 76.498 3.538 1.428 7.127 2.76 10.711 3.952 4.813 1.726 33.070 6.323 28.621 16.297-3.753 8.771-38.272-6.63-44.769-8.642 8.576 3.226 22.769 8.776 24.284 18.637-13.143-1.802-26.046-8.018-36.014-17.054 3.599 3.876 6.329 8.596 6.907 13.68-35.062-22.4-55.542-67.558-72.115-111.36-13.015 12.611-24.55 22.543-34.898 28.058-29.030 15.57-63.739 31.81-118.226 52.040-1.674-18.028 8.914-42 39.424-57.938-6.61 0.886-18.698-1.090-28.365-3.405 3.938-20.654 16.794-37.668 51.605-45.895-15.908-1.049-24.131-4.669-31.58-12.472 7.245-14.362 24.924-31.268 56.729-27.797-35.358-15.242-14.418-43.469 14.357-39.255-49.085-50.698-126.474-46.976-170.911-4.572 116.025-158.101 368.236-93.501 405.822 58.783 28.155-0.24 44.713 9.754 54.978 20.772-16.226-2.755-39.736 0.092-52.209 5.284z" />
</font>
</defs>
</svg>
