<svg width="34" height="34" viewBox="0 0 34 34" fill="none" xmlns="http://www.w3.org/2000/svg">
<rect x="0.370605" y="0.55249" width="32.6953" height="32.6953" rx="3.21367" fill="#F8F0FB"/>
<path d="M16.7183 9.90015C15.0733 9.90015 13.7183 11.2551 13.7183 12.9001C13.7183 14.5452 15.0733 15.9001 16.7183 15.9001C18.3633 15.9001 19.7183 14.5452 19.7183 12.9001C19.7183 11.2551 18.3633 9.90015 16.7183 9.90015ZM9.71826 11.9001C9.18783 11.9001 8.67912 12.1109 8.30405 12.4859C7.92898 12.861 7.71826 13.3697 7.71826 13.9001C7.71826 14.4306 7.92898 14.9393 8.30405 15.3144C8.67912 15.6894 9.18783 15.9001 9.71826 15.9001C10.2487 15.9001 10.7574 15.6894 11.1325 15.3144C11.5075 14.9393 11.7183 14.4306 11.7183 13.9001C11.7183 13.3697 11.5075 12.861 11.1325 12.4859C10.7574 12.1109 10.2487 11.9001 9.71826 11.9001ZM23.7183 11.9001C23.1878 11.9001 22.6791 12.1109 22.304 12.4859C21.929 12.861 21.7183 13.3697 21.7183 13.9001C21.7183 14.4306 21.929 14.9393 22.304 15.3144C22.6791 15.6894 23.1878 15.9001 23.7183 15.9001C24.2487 15.9001 24.7574 15.6894 25.1325 15.3144C25.5075 14.9393 25.7183 14.4306 25.7183 13.9001C25.7183 13.3697 25.5075 12.861 25.1325 12.4859C24.7574 12.1109 24.2487 11.9001 23.7183 11.9001ZM9.71826 17.9001C7.53326 17.9001 5.71826 18.8089 5.71826 20.1169V21.9001H8.71826V21.1169C8.71826 19.8619 9.24525 18.7776 10.1772 17.9236C10.0252 17.9146 9.87526 17.9001 9.71826 17.9001ZM16.7183 17.9001C13.1863 17.9001 10.7183 19.2229 10.7183 21.1169V23.9001H22.7183V21.1169C22.7183 19.2229 20.2503 17.9001 16.7183 17.9001ZM23.7183 17.9001C23.5613 17.9001 23.4113 17.9146 23.2593 17.9236C24.1913 18.7776 24.7183 19.8629 24.7183 21.1169V21.9001H27.7183V20.1169C27.7183 18.8089 25.9033 17.9001 23.7183 17.9001Z" fill="#BB6BD9"/>
</svg>
