<svg width="11" height="11" viewBox="0 0 11 11" fill="none" xmlns="http://www.w3.org/2000/svg">
<path d="M5.52138 0.500094C5.29001 0.503484 5.06944 0.598592 4.90815 0.764519C4.74686 0.930445 4.65804 1.15362 4.66121 1.385V4.87686H1.16934C1.05366 4.87523 0.938807 4.8966 0.83146 4.93974C0.724113 4.98287 0.626409 5.04691 0.544028 5.12814C0.461646 5.20936 0.396229 5.30615 0.351579 5.41288C0.306929 5.51961 0.283936 5.63414 0.283936 5.74983C0.283936 5.86552 0.306929 5.98006 0.351579 6.08678C0.396229 6.19351 0.461646 6.2903 0.544028 6.37152C0.626409 6.45275 0.724113 6.51679 0.83146 6.55993C0.938807 6.60306 1.05366 6.62443 1.16934 6.6228H4.66121V10.1147C4.65957 10.2303 4.68094 10.3452 4.72408 10.4525C4.76721 10.5599 4.83125 10.6576 4.91248 10.74C4.9937 10.8224 5.09049 10.8878 5.19722 10.9324C5.30395 10.9771 5.41848 11.0001 5.53417 11.0001C5.64986 11.0001 5.7644 10.9771 5.87113 10.9324C5.97785 10.8878 6.07464 10.8224 6.15586 10.74C6.23709 10.6576 6.30113 10.5599 6.34427 10.4525C6.3874 10.3452 6.40878 10.2303 6.40714 10.1147V6.6228H9.89901C10.0147 6.62443 10.1295 6.60306 10.2369 6.55993C10.3442 6.51679 10.4419 6.45275 10.5243 6.37152C10.6067 6.2903 10.6721 6.19351 10.7168 6.08678C10.7614 5.98006 10.7844 5.86552 10.7844 5.74983C10.7844 5.63414 10.7614 5.51961 10.7168 5.41288C10.6721 5.30615 10.6067 5.20936 10.5243 5.12814C10.4419 5.04691 10.3442 4.98287 10.2369 4.93974C10.1295 4.8966 10.0147 4.87523 9.89901 4.87686H6.40714V1.385C6.40874 1.26827 6.38691 1.15242 6.34295 1.04428C6.29899 0.936142 6.23379 0.837917 6.15121 0.755415C6.06863 0.672912 5.97034 0.607809 5.86216 0.563954C5.75398 0.520099 5.6381 0.498385 5.52138 0.500094Z" fill="white"/>
</svg>
