<svg width="18.33" height="13.33" viewBox="0 0 19 14" fill="none" xmlns="http://www.w3.org/2000/svg">
<path d="M9.60914 0.390953C2.94247 0.390953 0.442474 7.05762 0.442474 7.05762C0.442474 7.05762 2.94247 13.7243 9.60914 13.7243C16.2758 13.7243 18.7758 7.05762 18.7758 7.05762C18.7758 7.05762 16.2758 0.390953 9.60914 0.390953ZM9.60914 2.05762C14.0058 2.05762 16.2296 5.61353 16.9496 7.05436C16.2288 8.4852 13.9883 12.0576 9.60914 12.0576C5.21247 12.0576 2.98865 8.50171 2.26865 7.06087C2.99031 5.63004 5.22997 2.05762 9.60914 2.05762ZM9.60914 3.72429C7.76831 3.72429 6.27581 5.21679 6.27581 7.05762C6.27581 8.89845 7.76831 10.391 9.60914 10.391C11.45 10.391 12.9425 8.89845 12.9425 7.05762C12.9425 5.21679 11.45 3.72429 9.60914 3.72429ZM9.60914 5.39095C10.53 5.39095 11.2758 6.13679 11.2758 7.05762C11.2758 7.97845 10.53 8.72429 9.60914 8.72429C8.68831 8.72429 7.94247 7.97845 7.94247 7.05762C7.94247 6.13679 8.68831 5.39095 9.60914 5.39095Z" fill="#BDBDBD"/>
</svg>
