<svg width="16.67" height="16.67" viewBox="0 0 17 18" fill="none" xmlns="http://www.w3.org/2000/svg"><path d="M7.94997 0.863281L7.21104 4.11686L4.19834 6.6722C3.82514 6.98876 3.60915 7.4546 3.60915 7.94336V15.891C3.60915 16.8018 4.36493 17.5576 5.27582 17.5576H12.4715C13.0995 17.5576 13.6768 17.2008 13.9591 16.6413L16.8058 10.9967C16.8978 10.8178 16.9425 10.6203 16.9425 10.4271V8.39095C16.9425 7.48006 16.1867 6.72428 15.2758 6.72428H11.4721C11.7071 5.99349 11.9425 5.0464 11.9425 4.11035C11.9425 2.66394 11.0374 1.71583 10.2302 1.31413C9.42307 0.912423 8.64333 0.890951 8.64333 0.890951L7.94997 0.863281ZM9.23252 2.73665C9.34981 2.77197 9.36409 2.74495 9.48806 2.80664C9.93088 3.02702 10.2758 3.27177 10.2758 4.11035C10.2758 5.26743 9.50759 7.23372 9.50759 7.23372L9.01931 8.39095H15.2758V10.3278L12.4715 15.891H5.27582V7.94336L8.71332 5.02669L9.23252 2.73665ZM0.275818 6.72428V17.5576H1.94248V6.72428H0.275818Z" fill="#BDBDBD"/></svg>
