<svg width="21" height="20" viewBox="0 0 21 20" fill="none" xmlns="http://www.w3.org/2000/svg">
<path fill-rule="evenodd" clip-rule="evenodd" d="M8.71631 16.1327C4.29803 16.1327 0.716309 12.551 0.716309 8.13269C0.716309 3.71441 4.29803 0.13269 8.71631 0.13269C13.1346 0.13269 16.7163 3.71441 16.7163 8.13269C16.7163 9.9814 16.0892 11.6837 15.0362 13.0383L20.4234 18.4256L19.0092 19.8398L13.622 14.4525C12.2673 15.5056 10.565 16.1327 8.71631 16.1327ZM14.7163 8.13269C14.7163 11.4464 12.03 14.1327 8.71631 14.1327C5.4026 14.1327 2.71631 11.4464 2.71631 8.13269C2.71631 4.81898 5.4026 2.13269 8.71631 2.13269C12.03 2.13269 14.7163 4.81898 14.7163 8.13269Z" fill="#828282"/>
</svg>
