<svg width="24" height="25" viewBox="0 0 24 25" xmlns="http://www.w3.org/2000/svg">
<path d="M18 2.38623C17.2044 2.38623 16.4413 2.7023 15.8787 3.26491C15.3161 3.82752 15 4.59058 15 5.38623C15.0006 5.57438 15.0189 5.76206 15.0547 5.94678L7.93945 10.0972C7.39751 9.63807 6.71026 9.38615 6 9.38623C5.20435 9.38623 4.44129 9.7023 3.87868 10.2649C3.31607 10.8275 3 11.5906 3 12.3862C3 13.1819 3.31607 13.9449 3.87868 14.5076C4.44129 15.0702 5.20435 15.3862 6 15.3862C6.70916 15.3848 7.3949 15.1323 7.93555 14.6733L15.0547 18.8257C15.0189 19.0104 15.0006 19.1981 15 19.3862C15 20.1819 15.3161 20.9449 15.8787 21.5076C16.4413 22.0702 17.2044 22.3862 18 22.3862C18.7956 22.3862 19.5587 22.0702 20.1213 21.5076C20.6839 20.9449 21 20.1819 21 19.3862C21 18.5906 20.6839 17.8275 20.1213 17.2649C19.5587 16.7023 18.7956 16.3862 18 16.3862C17.2902 16.3872 16.6037 16.6398 16.0625 17.0991L8.94531 12.9468C8.98108 12.7621 8.99939 12.5744 9 12.3862C8.99939 12.1981 8.98108 12.0104 8.94531 11.8257L16.0605 7.67529C16.6025 8.13439 17.2897 8.38631 18 8.38623C18.7956 8.38623 19.5587 8.07016 20.1213 7.50755C20.6839 6.94494 21 6.18188 21 5.38623C21 4.59058 20.6839 3.82752 20.1213 3.26491C19.5587 2.7023 18.7956 2.38623 18 2.38623Z"/>
</svg>
