<svg width="22" height="16" viewBox="0 0 22 16" fill="none" xmlns="http://www.w3.org/2000/svg"><path d="M21.084 2.31136C20.3098 2.61962 19.4801 2.82659 18.6077 2.92053C19.4981 2.44201 20.1822 1.68458 20.503 0.783301C19.6715 1.22513 18.7468 1.5466 17.7665 1.71981C16.9809 0.968254 15.8614 0.5 14.6224 0.5C12.2427 0.5 10.3131 2.22916 10.3131 4.36346C10.3131 4.66584 10.3524 4.96089 10.426 5.24419C6.84503 5.08272 3.67155 3.54438 1.54552 1.20605C1.174 1.77852 0.962872 2.44201 0.962872 3.14952C0.962872 4.4897 1.72228 5.67281 2.8794 6.36712C2.17236 6.34657 1.50788 6.17189 0.926865 5.88272C0.926865 5.89886 0.926865 5.91501 0.926865 5.93116C0.926865 7.80417 2.41295 9.36453 4.38186 9.72122C4.02179 9.8093 3.64045 9.85627 3.24765 9.85627C2.96942 9.85627 2.69937 9.83278 2.43587 9.78581C2.98579 11.3197 4.57662 12.4397 6.46042 12.4706C4.98742 13.5069 3.12981 14.1234 1.11017 14.1234C0.761562 14.1234 0.4195 14.1058 0.0839844 14.0691C1.98906 15.1671 4.2542 15.8056 6.68791 15.8056C14.6126 15.8056 18.9465 9.91792 18.9465 4.81263C18.9465 4.64529 18.9416 4.47649 18.935 4.31209C19.7763 3.7675 20.5062 3.08641 21.084 2.31136Z" fill="white"/></svg>