<svg width="34" height="33" viewBox="0 0 34 33" fill="none" xmlns="http://www.w3.org/2000/svg">
<rect x="0.570801" y="0.152344" width="32.6953" height="32.6953" rx="3.21367" fill="#FFF9E3"/>
<g clip-path="url(#clip0)">
<path d="M16.9186 9.83337C10.252 9.83337 7.75195 16.5 7.75195 16.5C7.75195 16.5 10.252 23.1667 16.9186 23.1667C23.5853 23.1667 26.0853 16.5 26.0853 16.5C26.0853 16.5 23.5853 9.83337 16.9186 9.83337ZM16.9186 12.3334C19.2195 12.3334 21.0853 14.1992 21.0853 16.5C21.0853 18.8009 19.2195 20.6667 16.9186 20.6667C14.6178 20.6667 12.752 18.8009 12.752 16.5C12.752 14.1992 14.6178 12.3334 16.9186 12.3334ZM16.9186 14C16.2556 14 15.6197 14.2634 15.1509 14.7323C14.682 15.2011 14.4186 15.837 14.4186 16.5C14.4186 17.1631 14.682 17.799 15.1509 18.2678C15.6197 18.7366 16.2556 19 16.9186 19C17.5817 19 18.2175 18.7366 18.6864 18.2678C19.1552 17.799 19.4186 17.1631 19.4186 16.5C19.4186 15.837 19.1552 15.2011 18.6864 14.7323C18.2175 14.2634 17.5817 14 16.9186 14Z" fill="#F2C94C"/>
</g>
<defs>
<clipPath id="clip0">
<rect width="20" height="20" fill="white" transform="translate(6.91846 6.5)"/>
</clipPath>
</defs>
</svg>
