<?xml version="1.0" standalone="no"?>
<!DOCTYPE svg PUBLIC "-//W3C//DTD SVG 1.1//EN" "http://www.w3.org/Graphics/SVG/1.1/DTD/svg11.dtd" >
<svg xmlns="http://www.w3.org/2000/svg">
<metadata>Generated by IcoMoon</metadata>
<defs>
<font id="icomoon" horiz-adv-x="1024">
<font-face units-per-em="1024" ascent="960" descent="-64" />
<missing-glyph horiz-adv-x="1024" />
<glyph unicode="&#x20;" horiz-adv-x="512" d="" />
<glyph unicode="&#xe900;" glyph-name="icon" horiz-adv-x="970" d="M485.83-64.975c-0.015 0-0.034 0-0.052 0-4.51 0-8.699 1.373-12.172 3.723-19.27 12.924-473.006 322.388-473.006 700.689 0 208.834 126.95 318.088 252.326 318.088 109.113-4.176 200.278-76.516 232.4-175.467 34.219 100.876 127.564 174.403 238.603 178.155 123.032 0.012 247.057-101.069 247.057-294.381 0-351.456-452.387-711.161-471.658-726.308-3.652-2.808-8.29-4.5-13.322-4.5-0.062 0-0.123 0-0.185 0.001z" />
<glyph unicode="&#xe901;" glyph-name="home2" d="M512 928l-512-512 96-96 96 96v-416h256v192h128v-192h256v416l96-96 96 96-512 512zM512 512c-35.346 0-64 28.654-64 64s28.654 64 64 64c35.346 0 64-28.654 64-64s-28.654-64-64-64z" />
<glyph unicode="&#xe902;" glyph-name="icon-arrow" horiz-adv-x="585" d="M85.577-64c0.095 0 0.208-0.001 0.32-0.001 23.732 0 45.153 9.897 60.359 25.789l411.824 424.259c15.281 16.071 24.681 37.859 24.681 61.842s-9.4 45.771-24.717 61.88l-411.758 424.191c-15.267 15.988-36.75 25.927-60.554 25.927-23.59 0-44.9-9.762-60.111-25.466-15.744-16.16-25.441-38.235-25.441-62.574 0-23.968 9.404-45.74 24.723-61.828l351.782-362.386-351.817-362.35c-15.284-16.051-24.688-37.823-24.688-61.791 0-24.339 9.697-46.414 25.438-62.571 15.109-15.38 36.154-24.924 59.428-24.924 0.187 0 0.373 0.001 0.559 0.002z" />
<glyph unicode="&#xe903;" glyph-name="icon-arrow2" horiz-adv-x="585" d="M497.371-64c-23.877 0.009-45.442 9.896-60.833 25.797l-411.451 424.251c-15.412 16.014-24.905 37.819-24.905 61.842s9.493 45.829 24.932 61.871l411.401 424.2c15.361 15.996 36.925 25.935 60.811 25.935 23.671 0 45.063-9.761 60.369-25.478 15.752-16.094 25.461-38.121 25.461-62.416 0-24.073-9.533-45.92-25.029-61.972l-351.646-362.031 351.451-362.35c15.471-16.025 25.004-37.872 25.004-61.946 0-24.295-9.709-46.322-25.458-62.413-15.265-15.602-36.555-25.286-60.107-25.292z" />
<glyph unicode="&#xe904;" glyph-name="icon-arrow3" horiz-adv-x="1946" d="M5.018 420.147c-1.024 2.355-1.536 4.813-2.355 7.373-0.597 1.6-1.23 3.687-1.754 5.816-1.017 4.756-1.548 9.725-1.548 14.818s0.531 10.062 1.541 14.855c0.532 2.139 1.165 4.261 1.901 6.334 0.679 2.005 1.191 4.463 2.215 6.818 1.386 2.89 2.682 5.238 4.088 7.51 0.828 1.779 1.85 3.557 2.982 5.256 2.729 4.054 5.797 7.739 9.201 11.083l450.57 440.33c13.757 13.212 32.475 21.349 53.094 21.349s39.337-8.136 53.12-21.373c13.665-13.053 22.177-31.453 22.177-51.841s-8.512-38.788-22.175-51.84l-322.383-314.701h1614.131c40.493 0 73.318-32.826 73.318-73.318s-32.826-73.318-73.318-73.318h-1613.824l322.355-314.675c13.691-13.078 22.203-31.478 22.203-51.866s-8.512-38.788-22.175-51.84c-13.743-13.332-32.475-21.534-53.122-21.534s-39.379 8.202-53.114 21.527l-450.541 439.789c-3.385 3.368-6.45 7.052-9.151 11.004-1.145 1.752-2.166 3.529-3.091 5.362-1.469 2.199-2.859 4.406-4.14 6.683z" />
<glyph unicode="&#xe905;" glyph-name="icon-arrow4" horiz-adv-x="1940" d="M1934.676 477.097c1.225-2.047 1.975-4.502 2.041-7.128 1.083-1.772 1.813-3.853 2.037-6.084 0.978-4.357 1.536-9.29 1.536-14.354s-0.558-9.997-1.615-14.742c-0.145-1.842-0.875-3.923-1.994-5.739-0.031-2.582-0.781-5.037-2.043-7.152-0.741-2.733-2.157-5.141-4.050-7.082l-3.059-6.122c-2.523-4.339-5.578-8.045-9.14-11.189l-449.26-438.024c-13.733-13.261-32.457-21.432-53.089-21.432s-39.355 8.171-53.111 21.454c-13.226 13.149-21.426 31.385-21.426 51.536s8.2 38.387 21.445 51.554l321.599 313.431h-1608.997c-40.315 0-72.997 32.682-72.997 72.997s32.682 72.997 72.997 72.997h1608.997l-321.595 314.449c-13.249 13.17-21.448 31.406-21.448 51.557s8.2 38.387 21.445 51.554c13.838 13.097 32.496 21.218 53.048 21.443 0.226 0.002 0.441 0.003 0.656 0.003 20.44 0 38.969-8.184 52.489-21.453l449.201-437.971c3.61-3.186 6.665-6.891 9.075-11.019l3.177-6.337c1.889-1.938 3.305-4.346 4.056-7.031z" />
<glyph unicode="&#xe906;" glyph-name="icon-checkbox" d="M442.88-64c-39.97 0.183-75.063 20.892-95.303 52.12l-327.95 506.557c-12.358 18.425-19.723 41.101-19.723 65.497 0 40.34 20.138 75.976 50.909 97.405 18.267 12.547 40.384 19.886 64.214 19.886 40.047 0 75.253-20.726 95.477-52.037l228.11-352.19 372.053 630.101c20.055 34.059 56.538 56.554 98.275 56.554 22.055 0 42.642-6.281 60.072-17.153 33.356-21.202 55.486-58.473 55.486-100.913 0-22.485-6.212-43.52-17.013-61.48l-466.472-788.026c-19.478-33.443-54.822-55.774-95.449-56.659l-2.684-0.002z" />
<glyph unicode="&#xe907;" glyph-name="icon-clock" horiz-adv-x="906" d="M862.917 725.74c-5.979 0.010-11.398 2.397-15.365 6.267l-16.931 16.892-53.169-52.46c79.242-80.146 128.24-190.338 128.394-311.975 0.021-1.667 0.033-3.6 0.033-5.536 0-250.143-202.781-452.923-452.923-452.923s-452.923 202.781-452.923 452.923c0 242.512 190.597 440.507 430.168 452.361l1.061 86.452h-21.268c-11.789 0-21.346 9.557-21.346 21.346s9.557 21.346 21.346 21.346h86.252c11.789 0 21.346-9.557 21.346-21.346s-9.557-21.346-21.346-21.346h-21.662v-86.41c104.063-4.82 198.142-43.977 272.039-106.306l53.277 54.043-16.935 16.935c-4.006 3.792-6.499 9.147-6.499 15.084s2.493 11.292 6.489 15.075c3.897 3.875 9.256 6.265 15.173 6.265s11.276-2.39 15.164-6.257l64.59-63.96c4.006-3.792 6.499-9.147 6.499-15.084s-2.493-11.292-6.489-15.075c-3.749-3.896-8.995-6.311-14.805-6.311-0.060 0-0.12 0-0.179 0.001zM43.323 384.433c-0.016-1.346-0.025-2.937-0.025-4.529 0-226.346 183.49-409.836 409.836-409.836s409.836 183.49 409.836 409.836c0 226.346-183.49 409.836-409.836 409.836-0.074 0-0.148 0-0.223 0-0.517 0.002-1.143 0.004-1.769 0.004-224.352 0-406.392-181.159-407.819-405.175zM474.585 683.087v-85.425c0-11.963-9.698-21.662-21.662-21.662s-21.662 9.698-21.662 21.662v85.346c0 0.012 0 0.026 0 0.039 0 11.963 9.698 21.662 21.662 21.662 11.95 0 21.639-9.676 21.662-21.62zM252.455 156.002c-3.774-3.869-9.038-6.268-14.863-6.268-0.175 0-0.349 0.002-0.523 0.006-0.036-0.001-0.109-0.002-0.182-0.002-5.791 0-11.022 2.399-14.753 6.257-4.011 3.798-6.504 9.153-6.504 15.090s2.493 11.292 6.489 15.075l64.6 64.009c3.958 3.871 9.38 6.259 15.36 6.259s11.402-2.388 15.364-6.263c3.834-3.867 6.206-9.196 6.206-15.080s-2.372-11.214-6.211-15.086zM302.080 512.433c-0.006 0-0.014 0-0.021 0-5.967 0-11.379 2.373-15.344 6.228l-64.586 63.995c-4.006 3.792-6.499 9.147-6.499 15.084s2.493 11.292 6.489 15.075c3.897 3.875 9.256 6.265 15.173 6.265s11.276-2.39 15.164-6.257l64.984-63.999c3.838-3.871 6.21-9.2 6.21-15.084s-2.372-11.214-6.211-15.086c-3.959-3.848-9.371-6.221-15.337-6.221-0.007 0-0.015 0-0.022 0zM258.757 384.433c0-0.001 0-0.002 0-0.002 0-11.789-9.557-21.346-21.346-21.346-0.111 0-0.221 0.001-0.332 0.003h-86.236c-11.388 0.505-20.43 9.86-20.43 21.327s9.042 20.822 20.384 21.325l86.298 0.002c0.105 0.002 0.23 0.003 0.354 0.003 11.768 0 21.307-9.54 21.307-21.307 0-0.001 0-0.002 0-0.003zM452.923 192.433c0.024 0 0.052 0 0.080 0 11.837 0 21.448-9.529 21.581-21.334v-85.438c0-11.963-9.698-21.662-21.662-21.662s-21.662 9.698-21.662 21.662v85.346c0.089 11.852 9.718 21.425 21.582 21.425 0.028 0 0.056 0 0.084 0zM653.391 612.825c3.958 3.871 9.38 6.259 15.36 6.259s11.402-2.388 15.364-6.263c3.834-3.867 6.206-9.196 6.206-15.080s-2.372-11.214-6.211-15.086l-64.983-63.999c-3.764-3.846-9.008-6.23-14.809-6.23-0.194 0-0.387 0.003-0.579 0.008-0.050-0.002-0.142-0.002-0.234-0.002-5.767 0-10.977 2.384-14.699 6.219-4.011 3.797-6.504 9.152-6.504 15.089s2.493 11.292 6.489 15.075zM619.126 250.171l64.985-64c3.838-3.871 6.21-9.2 6.21-15.084s-2.372-11.214-6.211-15.086c-3.957-3.869-9.379-6.258-15.359-6.258s-11.402 2.388-15.364 6.263l-64.587 63.996c-4.006 3.792-6.499 9.147-6.499 15.084s2.493 11.292 6.489 15.075c3.897 3.875 9.256 6.265 15.173 6.265s11.276-2.39 15.164-6.257zM647.089 384.433c0.133 11.796 9.727 21.307 21.542 21.307 0.042 0 0.084 0 0.126 0h86.246c0.274 0.013 0.594 0.020 0.917 0.020 11.789 0 21.346-9.557 21.346-21.346s-9.557-21.346-21.346-21.346c-0.322 0-0.643 0.007-0.962 0.021l-86.207-0.002c-0.024 0-0.052 0-0.080 0-11.837 0-21.448 9.529-21.581 21.334z" />
<glyph unicode="&#xe908;" glyph-name="icon-close" d="M1024 38.4l-102.4-102.4-409.6 409.6-409.6-409.6-102.4 102.4 409.6 409.6-409.6 409.6 102.4 102.4 409.6-409.6 409.6 409.6 102.4-102.4-409.6-409.6z" />
<glyph unicode="&#xe909;" glyph-name="icon-hamburger" horiz-adv-x="1484" d="M-1.346-63.327v170.566h1486.983v-170.566h-1486.983zM-1.346 533.687h1486.983v-170.566h-1486.983v170.566zM-1.346 960.135h1486.983v-170.566h-1486.983v170.566z" />
<glyph unicode="&#xe90a;" glyph-name="icon-heart" horiz-adv-x="970" d="M485.83-64.975c-0.015 0-0.034 0-0.052 0-4.51 0-8.699 1.373-12.172 3.723-19.27 12.924-473.006 322.388-473.006 700.689 0 208.834 126.95 318.088 252.326 318.088 109.113-4.176 200.278-76.516 232.4-175.467 34.219 100.876 127.564 174.403 238.603 178.155 123.032 0.012 247.057-101.069 247.057-294.381 0-351.456-452.387-711.161-471.658-726.308-3.652-2.808-8.29-4.5-13.322-4.5-0.062 0-0.123 0-0.185 0.001z" />
<glyph unicode="&#xe90b;" glyph-name="icon-idaes" horiz-adv-x="1165" d="M1143.843 362.584h-129.448c-11.789 0-21.345 9.557-21.345 21.345s9.557 21.345 21.345 21.345h129.448c11.789 0 21.345-9.557 21.345-21.345s-9.557-21.345-21.345-21.345zM1109.416 576.6l-119.631-49.011c-2.456-1.050-5.315-1.661-8.315-1.661-8.907 0-16.557 5.38-19.879 13.067-1.105 2.568-1.716 5.396-1.716 8.366 0 8.865 5.445 16.459 13.173 19.618l119.773 49.062c2.456 1.050 5.315 1.661 8.315 1.661 8.907 0 16.557-5.38 19.879-13.067 1.105-2.568 1.716-5.396 1.716-8.366 0-8.865-5.445-16.459-13.173-19.618zM903.239 670.738c-3.919-3.87-9.308-6.26-15.254-6.26s-11.335 2.39-15.256 6.262c-3.9 3.843-6.318 9.185-6.318 15.093s2.418 11.25 6.318 15.093l91.562 90.574c3.919 3.87 9.308 6.26 15.254 6.26s11.335-2.39 15.256-6.262c3.9-3.843 6.318-9.185 6.318-15.093s-2.418-11.25-6.318-15.093zM742.647 152.982c-2.501-1.667-5.474-2.839-8.676-3.305l-0.116-64.596c-1.3-82.428-68.425-148.748-151.040-148.748s-149.74 66.321-151.038 148.626l-0.002 64.175c-4.748 0.017-9.134 1.55-12.704 4.14-70.869 52.858-116.4 136.413-116.743 230.619 0.25 154.786 125.74 280.122 280.505 280.122 154.919 0 280.505-125.587 280.505-280.505 0-95.134-47.359-179.207-119.788-229.928zM474.924 85.080c1.097-58.751 48.981-105.956 107.891-105.956s106.794 47.206 107.889 105.854l0.002 64.12h-215.782v-64.053zM582.833 618.761c-0.295 0.001-0.644 0.002-0.994 0.002-129.997 0-235.483-104.943-236.362-234.732 0.248-77.801 36.558-146.987 93.064-191.819l284.721-0.389c59.029 43.46 96.904 112.681 96.904 190.749 0 130.445-105.746 236.191-236.191 236.191-0.402 0-0.803-0.001-1.204-0.003zM767.894 770.207c-3.363-7.806-10.99-13.171-19.871-13.171-0.016 0-0.031 0-0.047 0-2.977 0.003-5.817 0.599-8.405 1.678-7.741 3.15-13.2 10.751-13.2 19.628 0 2.966 0.609 5.789 1.71 8.351l49.382 118.187c3.389 7.823 11.043 13.197 19.952 13.197 2.993 0 5.845-0.607 8.439-1.704 7.727-3.158 13.172-10.751 13.172-19.616 0-2.97-0.611-5.798-1.715-8.363zM582.833 789.522c-0.042 0-0.092 0-0.143 0-11.751 0-21.293 9.456-21.432 21.174v128.119c0 11.915 9.659 21.575 21.575 21.575s21.575-9.659 21.575-21.575v-128.071c-0.159-11.735-9.709-21.186-21.467-21.186-0.038 0-0.076 0-0.114 0zM425.949 758.66c-2.443-1.025-5.283-1.622-8.262-1.624-0.018 0-0.038 0-0.057 0-8.887 0-16.52 5.364-19.84 13.031l-49.488 118.465c-1.048 2.425-1.657 5.248-1.657 8.214 0 8.877 5.459 16.478 13.203 19.631 2.598 1.101 5.456 1.712 8.457 1.712 8.907 0 16.557-5.38 19.879-13.067l49.488-118.465c1.029-2.405 1.627-5.203 1.627-8.141 0-8.878-5.461-16.481-13.208-19.633zM277.645 664.488c-0.020 0-0.044 0-0.068 0-5.923 0-11.289 2.387-15.188 6.252l-91.558 90.569c-3.903 3.845-6.32 9.188-6.32 15.095s2.418 11.25 6.318 15.093c3.922 3.872 9.31 6.262 15.257 6.262s11.335-2.39 15.256-6.262l91.557-90.569c3.903-3.845 6.32-9.188 6.32-15.095s-2.418-11.25-6.318-15.093c-3.913-3.864-9.288-6.249-15.221-6.252zM204.023 539.171c-3.374-7.807-11.007-13.171-19.894-13.171-0.020 0-0.040 0-0.059 0-2.976 0.002-5.816 0.599-8.404 1.678l-119.451 48.957c-7.886 3.203-13.345 10.805-13.345 19.682 0 2.966 0.609 5.789 1.71 8.351 3.336 7.685 10.99 13.059 19.899 13.059 2.993 0 5.845-0.607 8.439-1.704l119.454-48.957c7.886-3.203 13.345-10.805 13.345-19.682 0-2.966-0.609-5.789-1.71-8.351zM172.809 383.806c-0.159-11.735-9.709-21.186-21.467-21.186-0.038 0-0.076 0-0.114 0h-129.442c-11.789 0-21.345 9.557-21.345 21.345s9.557 21.345 21.345 21.345h129.448c0.095 0.002 0.206 0.002 0.318 0.002 11.82 0 21.41-9.553 21.468-21.36z" />
<glyph unicode="&#xe90c;" glyph-name="icon-members" horiz-adv-x="986" d="M493.037-64c-273.368 5.845-492.737 228.832-492.737 503.055 0 3.145 0.029 6.283 0.086 9.415-0.2 4.686-0.31 10.742-0.31 16.824 0 272.297 220.74 493.037 493.037 493.037s493.037-220.74 493.037-493.037c0-6.082-0.11-12.137-0.328-18.166 0.076-1.789 0.104-4.926 0.104-8.070 0-274.277-219.455-497.297-492.353-503.049zM809.415 109.132c-51.729 35.743-113.405 61.053-180.022 71.438-24.154 4.748-40.231 23.661-40.231 46.329 0 0.798 0.020 1.591 0.059 2.379 0.602 14.642 0.564 30.23 0.489 46.652 2.444 25.418 10.477 48.533 22.85 68.699 11.798 19.632 20.354 43.546 23.699 69.099l0.1 4.955 1.669 3.793c11.805 23.018 19.464 49.977 21.247 78.529 0.141 1.541 0.205 2.649 0.205 3.771 0 6.157-1.925 11.864-5.206 16.552l-6.955 7.227 1.858 10.164c1.934 10.771 3.793 21.921 5.575 33.299 1.555 9.633 3.11 19.418 4.817 29.393 13.805 79.644-11.681 131.906-75.852 155.496-5.348 1.972-16.119 4.817-28.558 8.078-50.703 11.134-95.55 28.308-136.854 51.111 2.596-1.883 2.596-2.414 2.596-2.945-1.441-29.241-2.617-52.338-19.646-60.302-65.764-30.72-88.254-76.041-75.169-151.514 1.707-9.937 3.3-19.759 4.855-29.393 1.82-11.378 3.793-22.49 5.575-33.299l1.82-10.164-7.016-7.32c-3.195-4.607-5.104-10.316-5.104-16.47 0-1.119 0.063-2.222 0.186-3.308 1.784-29 9.431-55.961 21.761-80.135l1.134-2.638v-4.020c3.313-25.664 11.659-48.829 24.034-69.285 12.057-19.268 20.338-43.172 22.573-68.809 0.042-16.986 0.042-32.649 0.573-47.44 0.033-0.655 0.051-1.422 0.051-2.193 0-22.756-16.189-41.731-37.677-46.036-69.382-10.747-131.046-36.057-184.236-72.768 81.73-81.712 193.906-133.016 318.064-133.016 124.27 0 236.536 51.396 316.701 134.092zM493.037 920.519c-252.324-5.403-454.804-211.226-454.804-464.341 0-2.876 0.026-5.745 0.078-8.609-0.007 0.108-0.007-0.274-0.007-0.656 0-117.963 42.493-226.001 113.007-309.642 56.331 41.65 124.636 70.528 198.667 82.147 6.332 0.913 9.111 4.054 9.111 7.844 0 0.11-0.002 0.219-0.007 0.328-0.606 15.155-0.606 31.615-0.568 48.568-2.83 19.502-9.434 37.020-19.067 52.452-13.402 22.673-23.14 49.94-27.15 79.034-13.5 28.193-21.967 59.847-23.51 93.309-0.061 1.44-0.084 2.516-0.084 3.597 0 13.072 3.457 25.336 9.506 35.929-1.629 7.912-2.994 16.369-4.359 24.903-1.517 9.481-3.072 18.963-4.779 28.9-15.967 92.122 13.236 153.259 91.819 191.943 1.265 8.404 2.138 18.364 2.419 28.472 1.373 27.507 2.245 45.408 17.795 51.78 2.325 0.922 5.019 1.457 7.837 1.457 6.444 0 12.236-2.795 16.228-7.239 28.045-28.199 100.673-47.352 139.699-57.668 13.919-3.793 24.879-6.561 31.896-9.14 81.806-30.341 117.57-101.073 100.39-199.642-1.707-9.785-3.224-19.418-4.779-28.9-1.365-8.571-2.731-17.029-4.172-25.259 5.862-10.236 9.319-22.501 9.319-35.572 0-1.081-0.024-2.157-0.070-3.226-1.557-33.832-10.024-65.487-24.015-93.934-3.664-29.606-13.568-57.566-28.068-82.526-8.266-13.233-14.667-30.049-17.554-48.039-0.103-17.658-0.103-33.928-0.672-49.288-0.004-0.093-0.006-0.203-0.006-0.312 0-3.79 2.78-6.931 6.411-7.495 76.732-11.968 145.036-40.845 203.367-82.735 68.514 83.88 111.007 191.918 111.007 309.881 0 0.382 0 0.764-0.001 1.146 0.047 2.396 0.073 5.291 0.073 8.192 0 253.169-202.566 459.026-454.461 464.336z" />
<glyph unicode="&#xe90d;" glyph-name="icon-send" horiz-adv-x="1115" d="M911.52 109.022c-0.758-3.084-2.696-5.619-5.297-7.149-1.659-0.938-3.577-1.482-5.62-1.5-1.168 0.004-2.287 0.183-3.34 0.512l-405.615 123.871c-4.65 1.462-7.965 5.735-7.965 10.781 0 2.78 1.006 5.325 2.673 7.291l403.898 479.149-505.959-456.785c-1.984-1.822-4.641-2.939-7.559-2.939-1.218 0-2.39 0.194-3.487 0.554l-365.492 116.47c-4.572 1.526-7.81 5.767-7.81 10.765 0 4.351 2.454 8.129 6.054 10.025l1092.317 559.888c1.495 0.804 3.271 1.277 5.158 1.277 2.63 0 5.046-0.919 6.944-2.453 2.596-2.093 4.256-5.298 4.256-8.891 0-0.937-0.113-1.847-0.326-2.718zM498.157 170.367l112.123-34.595c4.651-1.445 7.97-5.71 7.97-10.75 0-2.249-0.661-4.344-1.8-6.101l-112.097-177.526c-2.025-3.155-5.515-5.216-9.487-5.216-0.003 0-0.007 0-0.010 0s-0.010 0-0.015 0c-1.104 0-2.174 0.146-3.191 0.421-4.667 1.396-8.073 5.727-8.073 10.853 0 0.002 0 0.004 0 0.006v212.12c0.029 3.627 1.76 6.844 4.431 8.897 1.894 1.494 4.281 2.385 6.876 2.385 1.167 0 2.292-0.18 3.349-0.514z" />
<glyph unicode="&#xe90e;" glyph-name="icon-serch" d="M1016.149-55.876c-4.632-4.626-11.027-7.487-18.091-7.487s-13.459 2.861-18.091 7.487l-256.341 256.273c-76.804-68.528-178.671-110.406-290.319-110.406-241.297 0-436.907 195.61-436.907 436.907s195.61 436.907 436.907 436.907c241.297 0 436.907-195.61 436.907-436.907 0-111.648-41.878-213.515-110.784-290.749l256.855-255.843c4.602-4.617 7.447-10.988 7.447-18.023 0-7.103-2.9-13.528-7.581-18.156zM434.859 909.005c-211.796-0.272-383.386-172.029-383.386-383.863 0-212.002 171.862-383.863 383.863-383.863s383.863 171.861 383.863 383.863c-0.272 212.061-172.243 383.864-384.341 383.864z" />
<glyph unicode="&#xe90f;" glyph-name="icon-trash" d="M1006.912 789.376h-119.488v-836.288c0-0.019 0-0.041 0-0.064 0-9.402-7.622-17.024-17.024-17.024 0 0 0 0 0 0h-716.8c-0.019 0-0.042 0-0.064 0-9.402 0-17.024 7.622-17.024 17.024 0 0.023 0 0.045 0 0.068v836.285h-119.488c-9.437 0-17.088 7.651-17.088 17.088s7.651 17.088 17.088 17.088h290.176v119.424c0 9.402 7.622 17.024 17.024 17.024h375.488c9.437 0 17.088-7.651 17.088-17.088v-119.488h290.112c0.443 0.041 0.957 0.064 1.478 0.064 9.437 0 17.088-7.651 17.088-17.088s-7.651-17.088-17.088-17.088c-0.52 0-1.035 0.023-1.543 0.069zM682.624 925.952h-341.312v-102.4h341.312v102.4zM853.312 789.376h-682.688v-819.2h682.688v819.2zM324.224 635.776c0.019 0 0.042 0 0.064 0 9.402 0 17.024-7.622 17.024-17.024 0-0.023 0-0.045 0-0.068v-477.885c0.020-0.313 0.032-0.678 0.032-1.045 0-9.437-7.651-17.088-17.088-17.088s-17.088 7.651-17.088 17.088c0 0.368 0.012 0.733 0.035 1.095l-0.003 477.839c0 0.019 0 0.041 0 0.064 0 9.402 7.622 17.024 17.024 17.024 0 0 0 0 0 0zM512 635.776c0 0 0 0 0 0 9.402 0 17.024-7.622 17.024-17.024 0-0.023 0-0.045 0-0.067v-477.885c0.020-0.313 0.032-0.678 0.032-1.045 0-9.437-7.651-17.088-17.088-17.088s-17.088 7.651-17.088 17.088c0 0.368 0.012 0.733 0.035 1.095l-0.003 477.839c0 0.019 0 0.042 0 0.064 0 9.402 7.622 17.024 17.024 17.024 0.023 0 0.045 0 0.068 0zM699.712 635.776c9.437 0 17.088-7.651 17.088-17.088v-477.888c0-9.437-7.651-17.088-17.088-17.088s-17.088 7.651-17.088 17.088v477.888c0 9.437 7.651 17.088 17.088 17.088z" />
<glyph unicode="&#xe910;" glyph-name="icon-vote" horiz-adv-x="748" d="M735.232 161.792c0-0.394 0-0.788 0-1.182-2.241-8.156-4.619-14.926-7.394-21.487-9.628-26.96-20.77-50.855-33.799-73.527-2.774-71.404-63.44-129.61-137.7-129.61-0.689 0-1.377 0.005-2.064 0.015l-228.76-0.001c-0.58-0.009-1.264-0.014-1.95-0.014-75.913 0-137.608 60.877-138.927 136.476l-0.002 19.028c-142.927 109.607-203.54 219.254-179.791 326.105 18.393 82.708 99.564 112.443 138.555 126.779l6.695 2.481c2.875 94.523 10.555 242.334 15.951 340.244 3.704 41.028 37.929 72.933 79.606 72.933 43.148 0 78.309-34.197 79.858-76.966l0.004-161.618h35.21c0.227 0.002 0.496 0.003 0.765 0.003 44.928 0 83.308-28.040 98.594-67.574l41.796-0.722c0.171 0.001 0.374 0.002 0.577 0.002 44.863 0 83.175-28.053 98.35-67.574l23.874-0.721c54.193 0 91.569-35.131 105.275-98.934 11.79-61.951 18.535-133.211 18.535-206.047 0-12.815-0.209-25.582-0.623-38.296-0.343-27.405-4.951-55.44-13.193-81.873zM695.611 478.72c-10.24 47.616-34.068 71.759-70.892 71.759h-17.25v-122.526c0-9.723-7.882-17.605-17.605-17.605s-17.605 7.882-17.605 17.605v122.447c-0.66 37.861-31.508 68.3-69.465 68.3-0.35 0-0.699-0.003-1.047-0.008l-35.393 0.001v-170.693c0-9.723-7.882-17.605-17.605-17.605s-17.605 7.882-17.605 17.605v170.772c-0.639 37.857-31.477 68.3-69.426 68.3-0.349 0-0.698-0.003-1.046-0.008l-35.157 0.001v-221.932c0-9.723-7.882-17.605-17.605-17.605s-17.605 7.882-17.605 17.605v417.674c-0.664 24.127-20.381 43.433-44.607 43.433-23.394 0-42.583-18.002-44.47-40.909-6.115-110.989-19.939-373.724-16.631-419.016 0.010-0.094 0.015-0.204 0.015-0.315s-0.005-0.221-0.016-0.329c0.001-0.183 0.001-0.38 0.001-0.577v-51.2c0-9.723-7.882-17.605-17.605-17.605s-17.605 7.882-17.605 17.605v51.2c-0.591 8.94-0.63 24.537-0.276 44.938-36.785-13.706-96.374-38.951-109.883-99.564-21.74-97.713 41.196-200.862 187.038-307.2 4.285-3.063 7.045-8.022 7.045-13.626 0-3.894-1.333-7.477-3.567-10.317-2.456-2.958-5.901-5.079-9.829-5.854l-0.108-0.924c1.013-56.774 47.275-102.41 104.196-102.41 0.518 0 1.035 0.004 1.551 0.011l228.786-0.001c0.438-0.007 0.955-0.010 1.472-0.010 56.913 0 103.167 45.641 104.156 102.318 0.038 1.509 0.251 2.86 0.62 4.145-8.714-2.614-18.69-4.052-29.002-4.052-0.032 0-0.065 0-0.097 0h-10.235c-0.245-0.013-0.532-0.020-0.82-0.020-9.44 0-17.093 7.653-17.093 17.093s7.653 17.093 17.093 17.093c0.289 0 0.575-0.007 0.86-0.021l10.2 0.002c0.473-0.012 1.029-0.019 1.587-0.019 29.248 0 53.996 19.264 62.25 45.795 10.36 27.224 16.646 58.163 17.446 90.463 0.375 11.109 0.585 23.758 0.585 36.457 0 70.454-6.458 139.399-18.815 206.277z" />
<glyph unicode="&#xe911;" glyph-name="facebook2" horiz-adv-x="602" d="M548 944v-150.857h-89.714c-70.286 0-83.429-33.714-83.429-82.286v-108h167.429l-22.286-169.143h-145.143v-433.714h-174.857v433.714h-145.714v169.143h145.714v124.571c0 144.571 88.571 223.429 217.714 223.429 61.714 0 114.857-4.571 130.286-6.857z" />
<glyph unicode="&#xe922;" glyph-name="file-text" d="M864 960h-768c-52.8 0-96-43.2-96-96v-832c0-52.8 43.2-96 96-96h768c52.8 0 96 43.2 96 96v832c0 52.8-43.2 96-96 96zM832 64h-704v768h704v-768zM256 512h448v-64h-448zM256 384h448v-64h-448zM256 256h448v-64h-448zM256 640h448v-64h-448z" />
<glyph unicode="&#xe945;" glyph-name="envelop" d="M928 832h-832c-52.8 0-96-43.2-96-96v-640c0-52.8 43.2-96 96-96h832c52.8 0 96 43.2 96 96v640c0 52.8-43.2 96-96 96zM398.74 409.628l-270.74-210.892v501.642l270.74-290.75zM176.38 704h671.24l-335.62-252-335.62 252zM409.288 398.302l102.712-110.302 102.71 110.302 210.554-270.302h-626.528l210.552 270.302zM625.26 409.628l270.74 290.75v-501.642l-270.74 210.892z" />
<glyph unicode="&#xe948;" glyph-name="location2" d="M512 960c-176.732 0-320-143.268-320-320 0-320 320-704 320-704s320 384 320 704c0 176.732-143.27 320-320 320zM512 444c-108.248 0-196 87.752-196 196s87.752 196 196 196 196-87.752 196-196-87.752-196-196-196zM388 640c0 68.483 55.517 124 124 124s124-55.517 124-124c0-68.483-55.517-124-124-124s-124 55.517-124 124z" />
<glyph unicode="&#xe952;" glyph-name="stopwatch" d="M512.002 766.788v65.212h128v64c0 35.346-28.654 64-64.002 64h-191.998c-35.346 0-64-28.654-64-64v-64h128v-65.212c-214.798-16.338-384-195.802-384-414.788 0-229.75 186.25-416 416-416s416 186.25 416 416c0 218.984-169.202 398.448-384 414.788zM706.276 125.726c-60.442-60.44-140.798-93.726-226.274-93.726s-165.834 33.286-226.274 93.726c-60.44 60.44-93.726 140.8-93.726 226.274s33.286 165.834 93.726 226.274c58.040 58.038 134.448 91.018 216.114 93.548l-21.678-314.020c-1.86-26.29 12.464-37.802 31.836-37.802s33.698 11.512 31.836 37.802l-21.676 314.022c81.666-2.532 158.076-35.512 216.116-93.55 60.44-60.44 93.726-140.8 93.726-226.274s-33.286-165.834-93.726-226.274z" />
<glyph unicode="&#xe953;" glyph-name="calendar" d="M320 576h128v-128h-128zM512 576h128v-128h-128zM704 576h128v-128h-128zM128 192h128v-128h-128zM320 192h128v-128h-128zM512 192h128v-128h-128zM320 384h128v-128h-128zM512 384h128v-128h-128zM704 384h128v-128h-128zM128 384h128v-128h-128zM832 960v-64h-128v64h-448v-64h-128v64h-128v-1024h960v1024h-128zM896 0h-832v704h832v-704z" />
<glyph unicode="&#xe955;" glyph-name="keyboard" horiz-adv-x="1152" d="M1088 832h-1024c-35.2 0-64-28.8-64-64v-640c0-35.2 28.8-64 64-64h1024c35.2 0 64 28.8 64 64v640c0 35.2-28.8 64-64 64zM640 704h128v-128h-128v128zM832 512v-128h-128v128h128zM448 704h128v-128h-128v128zM640 512v-128h-128v128h128zM256 704h128v-128h-128v128zM448 512v-128h-128v128h128zM128 704h64v-128h-64v128zM128 512h128v-128h-128v128zM192 192h-64v128h64v-128zM768 192h-512v128h512v-128zM1024 192h-192v128h192v-128zM1024 384h-128v128h128v-128zM1024 576h-192v128h192v-128z" />
<glyph unicode="&#xe96b;" glyph-name="bubble" d="M512 896c282.77 0 512-186.25 512-416 0-229.752-229.23-416-512-416-27.156 0-53.81 1.734-79.824 5.044-109.978-109.978-241.25-129.7-368.176-132.596v26.916c68.536 33.578 128 94.74 128 164.636 0 9.754-0.758 19.33-2.164 28.696-115.796 76.264-189.836 192.754-189.836 323.304 0 229.75 229.23 416 512 416z" />
<glyph unicode="&#xe97a;" glyph-name="spinner" d="M384 832c0 70.692 57.308 128 128 128s128-57.308 128-128c0-70.692-57.308-128-128-128s-128 57.308-128 128zM655.53 719.53c0 70.692 57.308 128 128 128s128-57.308 128-128c0-70.692-57.308-128-128-128s-128 57.308-128 128zM832 448c0 35.346 28.654 64 64 64s64-28.654 64-64c0-35.346-28.654-64-64-64s-64 28.654-64 64zM719.53 176.47c0 35.346 28.654 64 64 64s64-28.654 64-64c0-35.346-28.654-64-64-64s-64 28.654-64 64zM448.002 64c0 0 0 0 0 0 0 35.346 28.654 64 64 64s64-28.654 64-64c0 0 0 0 0 0 0-35.346-28.654-64-64-64s-64 28.654-64 64zM176.472 176.47c0 0 0 0 0 0 0 35.346 28.654 64 64 64s64-28.654 64-64c0 0 0 0 0 0 0-35.346-28.654-64-64-64s-64 28.654-64 64zM144.472 719.53c0 0 0 0 0 0 0 53.019 42.981 96 96 96s96-42.981 96-96c0 0 0 0 0 0 0-53.019-42.981-96-96-96s-96 42.981-96 96zM56 448c0 39.765 32.235 72 72 72s72-32.235 72-72c0-39.765-32.235-72-72-72s-72 32.235-72 72z" />
<glyph unicode="&#xe9c7;" glyph-name="download3" d="M736 512l-256-256-256 256h160v384h192v-384zM480 256h-480v-256h960v256h-480zM896 128h-128v64h128v-64z" />
<glyph unicode="&#xe9ce;" glyph-name="eye" d="M512 768c-223.318 0-416.882-130.042-512-320 95.118-189.958 288.682-320 512-320 223.312 0 416.876 130.042 512 320-95.116 189.958-288.688 320-512 320zM764.45 598.296c60.162-38.374 111.142-89.774 149.434-150.296-38.292-60.522-89.274-111.922-149.436-150.296-75.594-48.218-162.89-73.704-252.448-73.704-89.56 0-176.858 25.486-252.452 73.704-60.158 38.372-111.138 89.772-149.432 150.296 38.292 60.524 89.274 111.924 149.434 150.296 3.918 2.5 7.876 4.922 11.86 7.3-9.96-27.328-15.41-56.822-15.41-87.596 0-141.382 114.616-256 256-256 141.382 0 256 114.618 256 256 0 30.774-5.452 60.268-15.408 87.598 3.978-2.378 7.938-4.802 11.858-7.302v0zM512 544c0-53.020-42.98-96-96-96s-96 42.98-96 96 42.98 96 96 96 96-42.982 96-96z" />
<glyph unicode="&#xe9da;" glyph-name="heart" d="M755.188 896c-107.63 0-200.258-87.554-243.164-179-42.938 91.444-135.578 179-243.216 179-148.382 0-268.808-120.44-268.808-268.832 0-301.846 304.5-380.994 512.022-679.418 196.154 296.576 511.978 387.206 511.978 679.418 0 148.392-120.43 268.832-268.812 268.832z" />
<glyph unicode="&#xea0a;" glyph-name="plus" d="M992 576h-352v352c0 17.672-14.328 32-32 32h-192c-17.672 0-32-14.328-32-32v-352h-352c-17.672 0-32-14.328-32-32v-192c0-17.672 14.328-32 32-32h352v-352c0-17.672 14.328-32 32-32h192c17.672 0 32 14.328 32 32v352h352c17.672 0 32 14.328 32 32v192c0 17.672-14.328 32-32 32z" />
<glyph unicode="&#xea0c;" glyph-name="info" d="M448 656c0 26.4 21.6 48 48 48h32c26.4 0 48-21.6 48-48v-32c0-26.4-21.6-48-48-48h-32c-26.4 0-48 21.6-48 48v32zM640 192h-256v64h64v192h-64v64h192v-256h64zM512 960c-282.77 0-512-229.23-512-512s229.23-512 512-512 512 229.23 512 512-229.23 512-512 512zM512 32c-229.75 0-416 186.25-416 416s186.25 416 416 416 416-186.25 416-416-186.25-416-416-416z" />
<glyph unicode="&#xea8b;" glyph-name="google-plus" d="M325.8 502.6v-111.8h184.8c-7.4-48-55.8-140.6-184.8-140.6-111.2 0-202 92.2-202 205.8s90.8 205.8 202 205.8c63.4 0 105.6-27 129.8-50.2l88.4 85.2c-56.8 53-130.4 85.2-218.2 85.2-180.2-0.2-325.8-145.8-325.8-326s145.6-325.8 325.8-325.8c188 0 312.8 132.2 312.8 318.4 0 21.4-2.4 37.8-5.2 54h-307.6zM1024 512h-96v96h-96v-96h-96v-96h96v-96h96v96h96z" />
<glyph unicode="&#xea90;" glyph-name="facebook" d="M608 768h160v192h-160c-123.514 0-224-100.486-224-224v-96h-128v-192h128v-512h192v512h160l32 192h-192v96c0 17.346 14.654 32 32 32z" />
<glyph unicode="&#xea96;" glyph-name="twitter" d="M1024 733.6c-37.6-16.8-78.2-28-120.6-33 43.4 26 76.6 67.2 92.4 116.2-40.6-24-85.6-41.6-133.4-51-38.4 40.8-93 66.2-153.4 66.2-116 0-210-94-210-210 0-16.4 1.8-32.4 5.4-47.8-174.6 8.8-329.4 92.4-433 219.6-18-31-28.4-67.2-28.4-105.6 0-72.8 37-137.2 93.4-174.8-34.4 1-66.8 10.6-95.2 26.2 0-0.8 0-1.8 0-2.6 0-101.8 72.4-186.8 168.6-206-17.6-4.8-36.2-7.4-55.4-7.4-13.6 0-26.6 1.4-39.6 3.8 26.8-83.4 104.4-144.2 196.2-146-72-56.4-162.4-90-261-90-17 0-33.6 1-50.2 3 93.2-59.8 203.6-94.4 322.2-94.4 386.4 0 597.8 320.2 597.8 597.8 0 9.2-0.2 18.2-0.6 27.2 41 29.4 76.6 66.4 104.8 108.6z" />
<glyph unicode="&#xeaca;" glyph-name="linkedin2" d="M384 576h177.106v-90.782h2.532c24.64 44.194 84.958 90.782 174.842 90.782 186.946 0 221.52-116.376 221.52-267.734v-308.266h-184.61v273.278c0 65.184-1.334 149.026-96.028 149.026-96.148 0-110.82-70.986-110.82-144.292v-278.012h-184.542v576zM64 576h192v-576h-192v576zM256 736c0-53.019-42.981-96-96-96s-96 42.981-96 96c0 53.019 42.981 96 96 96s96-42.981 96-96z" />
</font>
</defs>
</svg>
